<?xml version="1.0" encoding="UTF-8"?><svg id="Layer_2" xmlns="http://www.w3.org/2000/svg" viewBox="0 0 189.84 232.26"><defs><style>.cls-1{stroke-width:7.93px;}.cls-1,.cls-2{fill:none;stroke:#fff8f8;stroke-miterlimit:10;}.cls-2{stroke-width:22.06px;}</style></defs><g id="Layer_1-2"><g><g><path class="cls-2" d="M35.51,23.53c4.27,14.05,12.59,55.48,14.08,70.09"/><path class="cls-2" d="M1.66,38.84c22.63-3.44,31.11-14.26,41.32-20.7,10.2-6.44,23.21-9.31,34.56-5.22,16.41,5.91,25.12,24.87,24.58,42.3-.34,11.05-3.71,21.99-9.63,31.32-13.69,21.56-46.39,18.7-56.98,42.63"/><path class="cls-2" d="M23.14,211.81c23.35,9.75,93.99,21.31,86.58-18.55-4.5-24.22-47.33-7.45-51.06-30.06-4.48-27.17,24.59-19.87,43.47-36.34,8.83-7.7,12.31-19.04,12.31-19.04"/></g><line class="cls-1" x1="185.87" y1="11.03" x2="185.87" y2="221.23"/></g></g></svg>